<svg width="254" height="48" viewBox="0 0 254 48" fill="none" xmlns="http://www.w3.org/2000/svg">
<g clip-path="url(#clip0_1_43)">
<path d="M126.465 44.132C120.924 43.6189 116.24 43.1627 111.551 42.7605C108.289 42.4785 105.023 42.1396 101.751 42.0604C94.2498 41.8735 86.7425 41.8228 79.2384 41.7278C78.1741 41.7151 77.1066 41.7405 76.0422 41.7975C61.8576 42.5514 47.6761 43.318 33.4914 44.075C26.9344 44.4235 20.3774 44.7719 13.8172 45.0728C12.9841 45.1108 12.1384 44.8416 11.1374 44.6927C21.8123 37.7049 109.667 37.1031 126.468 44.1384L126.465 44.132Z" fill="#FAFAFA"/>
<path d="M38.6578 46.058C58.2116 43.3528 77.7845 42.0541 97.4238 45.5734L97.4111 46.5015C95.3141 46.3051 93.2203 46.039 91.1202 45.9345C88.9916 45.8299 86.8502 45.7793 84.7216 45.887C74.7055 46.3969 64.6958 47.0463 54.6734 47.4866C49.735 47.702 44.784 47.5848 39.8393 47.5753C39.4276 47.5753 39.0158 47.2459 38.604 47.0685C38.623 46.7295 38.6388 46.3906 38.6578 46.0548V46.058Z" fill="#FAFAFA"/>
<path d="M4.39985 0.896973H13.681L18.3216 35.4115H11.4098L11.0234 30.4954H7.25388L6.72172 35.4115H0L4.39985 0.896973ZM10.393 23.9764L9.08795 9.33239L7.78288 23.9764H10.393Z" fill="#FAFAFA"/>
<path d="M19.7692 0.896973H30.7419L33.4977 18.1289L36.1554 0.896973H47.1756V35.4147H40.2638V11.7651L36.5418 35.4147H30.3079L26.6842 11.7651V35.4147H19.7724V0.896973H19.7692Z" fill="#FAFAFA"/>
<path d="M53.0231 0.896973H62.3042L66.9448 35.4115H60.033L59.6466 30.4954H55.8771L55.3449 35.4115H48.6264L53.0231 0.896973ZM59.0162 23.9764L57.7112 9.33239L56.4061 23.9764H59.0162Z" fill="#FAFAFA"/>
<path d="M67.477 35.4147V28.8957L75.887 7.57435H67.6227V0.896973H83.6224V7.21007L75.0666 28.6835H82.7988V35.4115H67.477V35.4147Z" fill="#FAFAFA"/>
<path d="M85.5547 0.896973H92.514V35.4147H85.5547V0.896973Z" fill="#FAFAFA"/>
<path d="M95.897 0.896973H103.341L106.436 15.2812V0.896973H113.347V35.4147H106.049L102.859 18.9081V35.4147H95.9002V0.896973H95.897Z" fill="#FAFAFA"/>
<path d="M133.839 14.4544V35.4147H131.181L130.361 33.191C128.717 35.0029 126.686 35.9342 124.174 35.9342C121.663 35.9342 119.341 34.8477 118.036 32.8806C116.876 31.1732 116.392 29.1554 116.392 25.8959V11.0397C116.392 6.69371 117.165 4.26097 119.147 2.44908C120.693 1.05215 122.578 0.380615 125.188 0.380615C128.476 0.380615 130.988 1.5178 132.439 3.58943C133.405 5.03704 133.89 7.2132 133.89 10.2636C133.89 10.8845 133.89 11.3501 133.842 12.2307H127.124V9.28167C127.124 7.4191 126.446 6.43397 125.239 6.43397C124.513 6.43397 123.839 6.89961 123.547 7.625C123.402 8.09064 123.354 8.55628 123.354 10.2636V25.3226C123.354 27.0299 123.402 27.4956 123.595 28.0657C123.836 28.8418 124.612 29.412 125.334 29.412C126.591 29.412 127.124 28.5314 127.124 26.4122V20.9259H125.239V14.4576H133.842L133.839 14.4544Z" fill="#FAFAFA"/>
<path d="M157.476 23.0989V25.4778C157.476 28.5821 157.91 29.5672 159.313 29.5672C160.618 29.5672 161.245 28.5314 161.245 26.4629C161.245 23.7736 160.811 23.0482 157.089 19.7349C152.015 15.1798 150.612 12.8516 150.612 8.92057C150.612 3.43422 153.706 0.383789 159.167 0.383789C162.455 0.383789 165.16 1.47029 166.513 3.33286C167.527 4.78047 167.625 5.40132 167.771 10.3713V10.8877H161.005C161.052 10.3713 161.052 10.1116 161.052 9.69664C161.052 7.83407 160.425 6.79825 159.262 6.79825C158.344 6.79825 157.618 7.67885 157.618 8.7115C157.618 10.2636 157.957 10.6786 164.191 16.317C167.188 19.0095 168.201 21.5436 168.201 25.9434C168.201 32.4624 165.107 35.931 159.307 35.931C156.164 35.931 153.7 34.949 152.249 33.1878C150.944 31.5311 150.703 30.394 150.703 25.5285V23.0957H157.469L157.476 23.0989Z" fill="#FF9B0A"/>
<path d="M170.767 0.896973H184.977V7.62503H177.727V13.0068H184.686V19.5797H177.727V28.6866H185.265V35.4147H170.764V0.896973H170.767Z" fill="#FF9B0A"/>
<path d="M187.591 0.896973H194.502V28.6328H201.607V35.4115H187.591V0.896973Z" fill="#FF9B0A"/>
<path d="M203.685 0.896973H210.597V28.6328H217.702V35.4115H203.685V0.896973Z" fill="#FF9B0A"/>
<path d="M219.78 0.896973H233.99V7.62503H226.739V13.0068H233.699V19.5797H226.739V28.6866H234.278V35.4147H219.777V0.896973H219.78Z" fill="#FF9B0A"/>
<path d="M236.6 0.896973H246.509C251.827 0.896973 254 3.48493 254 9.6935C254 14.7649 253.129 16.732 250.712 17.3528C252.79 17.923 253.417 19.2154 253.417 22.8899V35.4115H246.505V23.0451C246.505 20.3019 245.973 19.4752 244.187 19.4752C244.041 19.4752 243.753 19.4752 243.509 19.5258V35.4115H236.597V0.896973H236.6ZM244.915 13.3173C246.607 13.3173 247.38 12.386 247.38 10.4189C247.38 8.1952 246.654 7.21007 245.01 7.21007H243.512V13.3173H244.912H244.915Z" fill="#FF9B0A"/>
</g>
<defs>
<clipPath id="clip0_1_43">
<rect width="254" height="47.2389" fill="white" transform="translate(0 0.380615)"/>
</clipPath>
</defs>
</svg>